<svg width="192" height="65" viewBox="0 0 192 65" fill="none" xmlns="http://www.w3.org/2000/svg">
<path fill-rule="evenodd" clip-rule="evenodd" d="M18.1591 0.765625H45.7439C52.0586 0.765625 54.3485 1.42376 56.6564 2.66003C58.9644 3.89736 60.7771 5.71176 62.0115 8.02322C63.2459 10.3347 63.903 12.628 63.903 18.9523V46.579C63.903 52.9032 63.2459 55.1955 62.0115 57.508C60.7771 59.8195 58.9644 61.6339 56.6564 62.8712C54.3485 64.1075 52.0586 64.7656 45.7439 64.7656H18.1591C11.8444 64.7656 9.55457 64.1075 7.24661 62.8712C4.93864 61.6339 3.12699 59.8195 1.8926 57.508C0.657136 55.1955 0 52.9032 0 46.579V18.9523C0 12.628 0.657136 10.3347 1.8926 8.02322C3.12699 5.71176 4.93864 3.89736 7.24661 2.66003C9.55457 1.42376 11.8444 0.765625 18.1591 0.765625Z" fill="url(#paint0_linear_1_23)"/>
<path opacity="0.9" fill-rule="evenodd" clip-rule="evenodd" d="M24.356 17.8323V18.179L24.0013 18.5331C22.2504 20.3251 20.9042 22.4446 19.9616 24.8926C18.9562 27.5038 18.4535 30.195 18.4535 32.9662C18.4535 35.6659 18.9296 38.2718 19.8828 40.7859C20.836 43.299 22.1961 45.4792 23.963 47.3256V47.699H20.263L19.9499 47.38C18.4034 45.7619 17.1914 43.7352 16.3149 41.3054C15.3787 38.7112 14.9111 35.9315 14.9111 32.9662C14.9111 29.9283 15.4011 27.0728 16.3798 24.3998C17.3597 21.7267 18.7858 19.5379 20.6571 17.8323H24.356ZM43.2468 17.8323L43.5929 18.1576C45.2949 19.8131 46.6049 21.8942 47.523 24.3998C48.5028 27.0728 48.9928 29.9283 48.9928 32.9662C48.9928 35.9315 48.5241 38.7112 47.589 41.3054C46.6528 43.8984 45.3364 46.0296 43.6398 47.699H39.9409V47.3256L40.2881 46.9523C41.8867 45.187 43.1307 43.1315 44.02 40.7859C44.9743 38.2718 45.4504 35.6659 45.4504 32.9662C45.4504 30.195 44.9477 27.5038 43.9423 24.8926C42.9358 22.2814 41.4714 20.0435 39.5479 18.179V17.8323H43.2468ZM28.0294 23.8536V31.4995H35.8735V23.8536H39.5479V42.4499H35.8735V34.5374H28.0294V42.4499H24.356V23.8536H28.0294Z" fill="white"/>
<path fill-rule="evenodd" clip-rule="evenodd" d="M137.331 26.8547C138.742 26.8547 140.018 27.2003 141.162 27.8915C142.305 28.5827 143.21 29.5662 143.876 30.8398C144.541 32.1134 144.874 33.5896 144.874 35.2696C144.874 36.9475 144.541 38.4344 143.876 39.7283C143.21 41.0232 142.305 42.0248 141.162 42.7363C140.018 43.4467 138.742 43.803 137.331 43.803C136.118 43.803 135.05 43.5566 134.125 43.0616C133.305 42.6232 132.62 42.0824 132.073 41.4403L131.875 41.195V51.3582H127.701V27.1214H131.875V29.4915L132.061 29.2462C132.579 28.603 133.257 28.0579 134.096 27.6099C135.041 27.1064 136.118 26.8547 137.331 26.8547ZM157.545 26.8547C158.956 26.8547 160.233 27.2003 161.376 27.8915C162.518 28.5827 163.423 29.5662 164.088 30.8398C164.754 32.1134 165.087 33.5896 165.087 35.2696C165.087 36.9475 164.754 38.4344 164.088 39.7283C163.423 41.0232 162.518 42.0248 161.376 42.7363C160.233 43.4467 158.956 43.803 157.545 43.803C156.333 43.803 155.264 43.5566 154.34 43.0616C153.518 42.6232 152.834 42.0824 152.287 41.4403L152.088 41.195V51.3582H147.915V27.1214H152.088V29.4915L152.275 29.2462C152.792 28.603 153.47 28.0579 154.309 27.6099C155.254 27.1064 156.333 26.8547 157.545 26.8547ZM178.972 27.1214L183.236 38.588L187.558 27.1214H192L181.774 51.2995H177.332L180.91 43.1214L174.291 27.1214H178.972ZM109.153 16.1582V16.5432L108.749 16.9368C106.761 18.9304 105.23 21.2878 104.159 24.0099C103.016 26.9134 102.444 29.9064 102.444 32.988C102.444 35.9907 102.986 38.8899 104.07 41.6846C105.153 44.4792 106.698 46.9038 108.706 48.9582V49.3731H104.502L104.165 49.0392C102.399 47.2355 101.015 44.9763 100.015 42.2616C98.9519 39.3784 98.4204 36.2862 98.4204 32.988C98.4204 29.6099 98.9764 26.4344 100.089 23.4616C101.202 20.4888 102.822 18.0547 104.949 16.1582H109.153ZM166.553 16.1582L166.922 16.4984C168.867 18.3427 170.365 20.6638 171.413 23.4616C172.526 26.4344 173.082 29.6099 173.082 32.988C173.082 36.2862 172.549 39.3784 171.486 42.2616C170.423 45.1459 168.928 47.5171 166.999 49.3731H162.795V48.9582L163.167 48.5688C164.996 46.5987 166.416 44.3043 167.432 41.6846C168.515 38.8899 169.057 35.9907 169.057 32.988C169.057 29.9064 168.486 26.9134 167.343 24.0099C166.199 21.1064 164.536 18.6179 162.348 16.5432V16.1582H166.553ZM113.957 26.8547C115.19 26.8547 116.267 27.1011 117.192 27.595C118.013 28.0344 118.689 28.5742 119.221 29.2163L119.413 29.4616V27.1214H123.616V43.5363H119.413V41.1363L119.226 41.388C118.71 42.0462 118.031 42.5987 117.192 43.0467C116.247 43.5512 115.16 43.803 113.926 43.803C112.537 43.803 111.268 43.4467 110.126 42.7363C108.984 42.0248 108.078 41.0232 107.413 39.7283C106.747 38.4344 106.415 36.9475 106.415 35.2696C106.415 33.6099 106.747 32.139 107.413 30.8547C108.078 29.5704 108.984 28.5827 110.126 27.8915C111.268 27.2003 112.546 26.8547 113.957 26.8547ZM82.2146 22.8547V31.3582H91.128V22.8547H95.3019V43.5363H91.128V34.7363H82.2146V43.5363H78.0406V22.8547H82.2146ZM115.031 30.4995C114.256 30.4995 113.54 30.6862 112.884 31.0616C112.228 31.4371 111.696 31.9854 111.288 32.7064C110.881 33.4275 110.678 34.2808 110.678 35.2696C110.678 36.2574 110.881 37.1214 111.288 37.8616C111.696 38.603 112.233 39.1704 112.899 39.5662C113.564 39.9608 114.276 40.1582 115.031 40.1582C115.805 40.1582 116.532 39.9662 117.206 39.58C117.882 39.195 118.419 38.6424 118.816 37.9214C119.213 37.2003 119.413 36.3363 119.413 35.3283C119.413 34.3214 119.213 33.4563 118.816 32.7363C118.419 32.0152 117.882 31.4616 117.206 31.0766C116.532 30.6915 115.805 30.4995 115.031 30.4995ZM136.228 30.4995C135.472 30.4995 134.762 30.6915 134.096 31.0766C133.431 31.4616 132.894 32.0195 132.486 32.7512C132.078 33.4819 131.875 34.3406 131.875 35.3283C131.875 36.3171 132.078 37.1758 132.486 37.9064C132.894 38.6371 133.431 39.195 134.096 39.58C134.762 39.9662 135.472 40.1582 136.228 40.1582C137.003 40.1582 137.723 39.9608 138.389 39.5662C139.055 39.1704 139.592 38.6072 139.999 37.8766C140.407 37.1459 140.61 36.2766 140.61 35.2696C140.61 34.2808 140.407 33.4275 139.999 32.7064C139.592 31.9854 139.055 31.4371 138.389 31.0616C137.723 30.6862 137.003 30.4995 136.228 30.4995ZM156.441 30.4995C155.686 30.4995 154.975 30.6915 154.309 31.0766C153.643 31.4616 153.108 32.0195 152.7 32.7512C152.293 33.4819 152.088 34.3406 152.088 35.3283C152.088 36.3171 152.293 37.1758 152.7 37.9064C153.108 38.6371 153.643 39.195 154.309 39.58C154.975 39.9662 155.686 40.1582 156.441 40.1582C157.217 40.1582 157.938 39.9608 158.603 39.5662C159.269 39.1704 159.806 38.6072 160.213 37.8766C160.62 37.1459 160.825 36.2766 160.825 35.2696C160.825 34.2808 160.62 33.4275 160.213 32.7064C159.806 31.9854 159.269 31.4371 158.603 31.0616C157.938 30.6862 157.217 30.4995 156.441 30.4995Z" fill="#222222"/>
<defs>
<linearGradient id="paint0_linear_1_23" x1="-1.56451" y1="-1.65216" x2="63.904" y2="62.822" gradientUnits="userSpaceOnUse">
<stop stop-color="#D140F8"/>
<stop offset="0.365081" stop-color="#788CE9"/>
<stop offset="0.683665" stop-color="#37C2DE"/>
<stop offset="1" stop-color="#1ECCAE"/>
</linearGradient>
</defs>
</svg>
